<svg width="64" height="46" viewBox="0 0 64 46" fill="none" xmlns="http://www.w3.org/2000/svg">
<g filter="url(#filter0_d_42_1048)">
<path d="M52.2298 31.9979H47.4142C45.5923 31.9979 45.0434 30.53 41.7774 27.2794C38.9231 24.5431 37.7176 24.203 36.9956 24.203C35.997 24.203 35.7247 24.4759 35.7247 25.843V30.1521C35.7247 31.3175 35.3447 32 32.2835 32C29.3136 31.8015 26.4337 30.9041 23.8809 29.3817C21.3281 27.8593 19.1754 25.7554 17.6002 23.2433C13.86 18.613 11.2576 13.1785 10 7.372C10 6.65383 10.2745 6.00285 11.6509 6.00285H16.4644C17.7016 6.00285 18.147 6.55093 18.6326 7.81719C20.9697 14.6588 24.9577 20.61 26.5769 20.61C27.1976 20.61 27.4679 20.337 27.4679 18.7977V11.7504C27.2631 8.53537 25.5467 8.26448 25.5467 7.10111C25.5684 6.79419 25.7096 6.50777 25.9402 6.30271C26.1708 6.09764 26.4727 5.99007 26.7817 6.00285H34.3482C35.3827 6.00285 35.7247 6.51523 35.7247 7.74579V17.2585C35.7247 18.2853 36.168 18.6255 36.4805 18.6255C37.1012 18.6255 37.5783 18.2853 38.7162 17.1556C41.1554 14.1968 43.1481 10.9002 44.6317 7.3699C44.7836 6.94604 45.0707 6.58322 45.4492 6.33677C45.8277 6.09033 46.2768 5.9738 46.7281 6.00495H51.5437C52.9877 6.00495 53.2939 6.72313 52.9877 7.74789C51.2363 11.6504 49.0691 15.3549 46.5233 18.7977C46.004 19.5852 45.7971 19.9947 46.5233 20.9187C47.0005 21.6368 48.6894 23.0396 49.8231 24.373C51.474 26.011 52.8442 27.9051 53.8808 29.9799C54.2946 31.3154 53.6042 31.9979 52.2298 31.9979Z" fill="url(#paint0_linear_42_1048)"/>
</g>
<defs>
<filter id="filter0_d_42_1048" x="0" y="0" width="64" height="46" filterUnits="userSpaceOnUse" color-interpolation-filters="sRGB">
<feFlood flood-opacity="0" result="BackgroundImageFix"/>
<feColorMatrix in="SourceAlpha" type="matrix" values="0 0 0 0 0 0 0 0 0 0 0 0 0 0 0 0 0 0 127 0" result="hardAlpha"/>
<feOffset dy="4"/>
<feGaussianBlur stdDeviation="5"/>
<feComposite in2="hardAlpha" operator="out"/>
<feColorMatrix type="matrix" values="0 0 0 0 0.0705882 0 0 0 0 0.12549 0 0 0 0 0.105882 0 0 0 0.75 0"/>
<feBlend mode="normal" in2="BackgroundImageFix" result="effect1_dropShadow_42_1048"/>
<feBlend mode="normal" in="SourceGraphic" in2="effect1_dropShadow_42_1048" result="shape"/>
</filter>
<linearGradient id="paint0_linear_42_1048" x1="-1.20755" y1="-7.83333" x2="72.1504" y2="68.3705" gradientUnits="userSpaceOnUse">
<stop stop-color="#EEEEEE"/>
<stop offset="1" stop-color="#12201B"/>
</linearGradient>
</defs>
</svg>
