<svg width="540" height="66" viewBox="0 0 540 66" fill="none" xmlns="http://www.w3.org/2000/svg">
<g filter="url(#filter0_d_18_96)">
<path d="M5.26225 46.584L7.95025 40.504C9.87025 41.8267 11.9609 42.8507 14.2223 43.576C16.5263 44.2587 18.8089 44.6213 21.0703 44.664C23.3316 44.7067 25.3796 44.4507 27.2143 43.896C29.0916 43.3413 30.5849 42.5093 31.6943 41.4C32.8036 40.2907 33.3583 38.904 33.3583 37.24C33.3583 35.2347 32.5263 33.7413 30.8623 32.76C29.2409 31.736 27.0223 31.224 24.2063 31.224H13.7743V24.696H23.5663C26.0836 24.696 28.0249 24.184 29.3903 23.16C30.7983 22.136 31.5023 20.7493 31.5023 19C31.5023 17.5493 31.0329 16.3547 30.0943 15.416C29.1983 14.4773 27.9609 13.7733 26.3823 13.304C24.8463 12.8347 23.0969 12.6213 21.1343 12.664C19.2143 12.664 17.2089 12.9627 15.1183 13.56C13.0276 14.1147 11.0436 14.9467 9.16625 16.056L6.54225 9.336C9.35825 7.84266 12.3023 6.79733 15.3743 6.2C18.4889 5.60266 21.4969 5.432 24.3983 5.688C27.2996 5.944 29.9023 6.60533 32.2063 7.672C34.5529 8.73867 36.4303 10.1467 37.8383 11.896C39.2463 13.6027 39.9503 15.6293 39.9503 17.976C39.9503 20.1093 39.3743 22.008 38.2223 23.672C37.1129 25.2933 35.5769 26.552 33.6143 27.448C31.6516 28.344 29.3689 28.792 26.7663 28.792L27.0863 26.744C30.0303 26.744 32.5903 27.256 34.7663 28.28C36.9849 29.2613 38.6916 30.6267 39.8863 32.376C41.1236 34.1253 41.7423 36.152 41.7423 38.456C41.7423 40.632 41.1876 42.5733 40.0783 44.28C38.9689 45.944 37.4543 47.352 35.5343 48.504C33.6143 49.6133 31.4169 50.4453 28.9423 51C26.4676 51.512 23.8649 51.704 21.1343 51.576C18.4036 51.448 15.6729 50.9787 12.9423 50.168C10.2543 49.3573 7.69425 48.1627 5.26225 46.584ZM45.5448 51L65.7048 6.2H73.8968L94.1208 51H85.4168L68.0728 10.616H71.4008L54.1208 51H45.5448ZM54.8248 40.632L57.0648 34.104H81.2568L83.4968 40.632H54.8248ZM139.478 51.64C135.98 51.64 132.758 51.064 129.814 49.912C126.87 48.76 124.31 47.16 122.134 45.112C119.958 43.0213 118.273 40.5893 117.078 37.816C115.884 35 115.286 31.928 115.286 28.6C115.286 25.272 115.884 22.2213 117.078 19.448C118.273 16.632 119.958 14.2 122.134 12.152C124.31 10.0613 126.87 8.44 129.814 7.288C132.758 6.136 135.958 5.56 139.414 5.56C142.913 5.56 146.113 6.136 149.014 7.288C151.958 8.44 154.518 10.0613 156.694 12.152C158.87 14.2 160.556 16.632 161.75 19.448C162.945 22.2213 163.542 25.272 163.542 28.6C163.542 31.928 162.945 35 161.75 37.816C160.556 40.632 158.87 43.064 156.694 45.112C154.518 47.16 151.958 48.76 149.014 49.912C146.113 51.064 142.934 51.64 139.478 51.64ZM139.414 44.344C141.676 44.344 143.766 43.96 145.686 43.192C147.606 42.424 149.27 41.336 150.678 39.928C152.086 38.4773 153.174 36.8133 153.942 34.936C154.753 33.016 155.158 30.904 155.158 28.6C155.158 26.296 154.753 24.2053 153.942 22.328C153.174 20.408 152.086 18.744 150.678 17.336C149.27 15.8853 147.606 14.776 145.686 14.008C143.766 13.24 141.676 12.856 139.414 12.856C137.153 12.856 135.062 13.24 133.142 14.008C131.265 14.776 129.601 15.8853 128.15 17.336C126.742 18.744 125.633 20.408 124.822 22.328C124.054 24.2053 123.67 26.296 123.67 28.6C123.67 30.8613 124.054 32.952 124.822 34.872C125.633 36.792 126.742 38.4773 128.15 39.928C129.558 41.336 131.222 42.424 133.142 43.192C135.062 43.96 137.153 44.344 139.414 44.344ZM201.251 47.16V13.24H183.715L183.395 21.176C183.267 24.1627 183.075 27 182.819 29.688C182.605 32.3333 182.243 34.744 181.731 36.92C181.261 39.096 180.6 40.9093 179.747 42.36C178.893 43.8107 177.848 44.7707 176.611 45.24L167.651 43.96C169.272 44.0453 170.595 43.4907 171.619 42.296C172.685 41.1013 173.517 39.4373 174.115 37.304C174.712 35.1707 175.16 32.6747 175.459 29.816C175.757 26.9147 175.971 23.7787 176.099 20.408L176.611 6.2H209.443V47.16H201.251ZM166.115 60.536L166.179 43.96H215.907V60.536H208.227V51H173.859V60.536H166.115ZM223.805 51V6.2H231.997V38.008L256.061 6.2H263.805V51H255.613V19.256L231.549 51H223.805ZM307.854 6.2H316.174V51H307.854V6.2ZM284.686 51H276.366V6.2H284.686V51ZM308.494 31.8H283.982V24.696H308.494V31.8ZM376.06 51L360.892 29.176L367.612 25.016L385.468 51H376.06ZM346.428 51V6.2H354.62V51H346.428ZM352.124 32.12V24.952H367.228V32.12H352.124ZM368.38 29.56L360.764 28.536L376.06 6.2H384.892L368.38 29.56ZM391.346 51.64C390.621 51.64 389.896 51.576 389.17 51.448C388.445 51.32 387.656 51.1707 386.802 51L387.378 43.768C387.976 43.9387 388.616 44.024 389.298 44.024C391.09 44.024 392.52 43.2987 393.586 41.848C394.653 40.3547 395.421 38.1787 395.89 35.32C396.36 32.4613 396.68 28.9413 396.85 24.76L397.49 6.2H430.45V51H422.258V11.192L424.178 13.24H402.866L404.658 11.128L404.21 24.44C404.082 28.8773 403.784 32.7813 403.314 36.152C402.845 39.5227 402.12 42.36 401.138 44.664C400.2 46.9253 398.941 48.6533 397.362 49.848C395.784 51.0427 393.778 51.64 391.346 51.64ZM443.117 51V6.2H451.309V38.008L475.373 6.2H483.117V51H474.925V19.256L450.861 51H443.117ZM525.31 51L510.142 29.176L516.862 25.016L534.718 51H525.31ZM495.678 51V6.2H503.87V51H495.678ZM501.374 32.12V24.952H516.478V32.12H501.374ZM517.63 29.56L510.014 28.536L525.31 6.2H534.142L517.63 29.56Z" fill="url(#paint0_linear_18_96)"/>
</g>
<defs>
<filter id="filter0_d_18_96" x="0.262253" y="0.303955" width="539.456" height="65.2319" filterUnits="userSpaceOnUse" color-interpolation-filters="sRGB">
<feFlood flood-opacity="0" result="BackgroundImageFix"/>
<feColorMatrix in="SourceAlpha" type="matrix" values="0 0 0 0 0 0 0 0 0 0 0 0 0 0 0 0 0 0 127 0" result="hardAlpha"/>
<feOffset/>
<feGaussianBlur stdDeviation="2.5"/>
<feComposite in2="hardAlpha" operator="out"/>
<feColorMatrix type="matrix" values="0 0 0 0 0.134288 0 0 0 0 0.270833 0 0 0 0 0.202561 0 0 0 1 0"/>
<feBlend mode="normal" in2="BackgroundImageFix" result="effect1_dropShadow_18_96"/>
<feBlend mode="normal" in="SourceGraphic" in2="effect1_dropShadow_18_96" result="shape"/>
</filter>
<linearGradient id="paint0_linear_18_96" x1="-32" y1="-50.5" x2="63.7876" y2="343.013" gradientUnits="userSpaceOnUse">
<stop stop-color="#EEEEEE"/>
<stop offset="1" stop-color="#12201B"/>
</linearGradient>
</defs>
</svg>
