<svg width="32" height="32" viewBox="0 0 32 32" fill="none" xmlns="http://www.w3.org/2000/svg">
<path d="M4.4 26.7526C3.025 25.3776 1.94761 23.7887 1.16784 21.9859C0.388059 20.1831 -0.00121935 18.3192 2.86906e-06 16.3942C2.86906e-06 14.4692 0.366669 12.5675 1.1 10.6889C1.83334 8.81034 3.025 7.04545 4.675 5.39423C5.74445 4.32479 7.06628 3.40812 8.6405 2.64423C10.2147 1.88034 12.0786 1.27656 14.2322 0.832897C16.3857 0.390453 18.8454 0.123398 21.6113 0.0317308C24.3772 -0.0599358 27.4707 0.0470081 30.8917 0.352564C31.1361 3.59145 31.2125 6.57062 31.1208 9.29006C31.0292 12.0095 30.7768 14.4619 30.3637 16.6472C29.9518 18.8313 29.3712 20.7405 28.622 22.3746C27.8728 24.0087 26.9488 25.3763 25.85 26.4776C24.2306 28.097 22.5115 29.2813 20.6928 30.0306C18.8742 30.7798 17.0182 31.1538 15.125 31.1526C13.1389 31.1526 11.1986 30.7627 9.30417 29.9829C7.40972 29.2031 5.775 28.1263 4.4 26.7526ZM9.53333 26.0192C10.4194 26.5387 11.3288 26.9133 12.2613 27.1431C13.1939 27.3728 14.1484 27.4871 15.125 27.4859C16.5306 27.4859 17.9208 27.203 19.2958 26.6371C20.6708 26.0712 21.9847 25.1625 23.2375 23.9109C23.7875 23.3609 24.3454 22.5891 24.9113 21.5954C25.4772 20.6017 25.9661 19.3037 26.378 17.7014C26.7899 16.0966 27.1028 14.1563 27.3167 11.8806C27.5306 9.60479 27.5611 6.89268 27.4083 3.74423C25.9111 3.68312 24.2232 3.66051 22.3447 3.6764C20.4661 3.69229 18.5943 3.83712 16.7292 4.1109C14.8653 4.3859 13.0931 4.82895 11.4125 5.44006C9.73195 6.05117 8.35695 6.89145 7.2875 7.9609C5.9125 9.3359 4.96528 10.6956 4.44584 12.0401C3.92639 13.3845 3.66667 14.6831 3.66667 15.9359C3.66667 17.7387 4.01073 19.3202 4.69884 20.6806C5.38695 22.0409 5.99011 22.9955 6.50834 23.5442C7.79167 21.0998 9.4875 18.7543 11.5958 16.5079C13.7042 14.2615 16.1639 12.4208 18.975 10.9859C16.775 12.9109 14.8579 15.0883 13.2238 17.5181C11.5897 19.9478 10.3596 22.7816 9.53333 26.0192Z" fill="url(#paint0_linear_23_280)"/>
<defs>
<linearGradient id="paint0_linear_23_280" x1="-7.93656" y1="-16.5748" x2="205.455" y2="26.5272" gradientUnits="userSpaceOnUse">
<stop stop-color="#EEEEEE"/>
<stop offset="1" stop-color="#12201B"/>
</linearGradient>
</defs>
</svg>
